<svg xmlns="http://www.w3.org/2000/svg" viewBox="0 0 527.48 132.91"><defs><style>.cls-1{fill:#fff;}.cls-2{fill:#fab432;}.cls-3{fill:#888;}</style></defs><g id="Layer_2" data-name="Layer 2"><g id="Layer_1-2" data-name="Layer 1"><path class="cls-1" d="M135.2,33.94H149c6.75,0,11.81,4.31,11.81,10.47S155.7,54.89,149,54.89h-8V65.51H135.2Zm13.1,15.67c3.91,0,6.62-2,6.62-5.2s-2.71-5.19-6.62-5.19H141V49.61Z"/><path class="cls-1" d="M168.66,49.7a16.57,16.57,0,0,1,33.13,0,16.57,16.57,0,0,1-33.13,0Zm27.25,0a10.72,10.72,0,1,0-10.66,11.12C191,60.82,195.91,55.76,195.91,49.7Z"/><path class="cls-1" d="M233.31,60.27v5.24H211.39V33.94h5.7V60.27Z"/><path class="cls-1" d="M264.19,60.27v5.24H242.27V33.94H248V60.27Z"/><path class="cls-1" d="M273.51,33.94h5.7V65.51h-5.7Z"/><path class="cls-1" d="M290.84,33.94h5.74l16.68,22.19V33.94H319V65.51h-5.7l-16.68-22.2v22.2h-5.74Z"/><path class="cls-1" d="M352.14,59.81H336.88l-2.39,5.7H328.1l13.19-31.57h6.39l13.19,31.57h-6.34Zm-2.07-5-5.56-13.28L339,54.84Z"/><path class="cls-1" d="M375.2,39.17H365.09V33.94H391v5.23H380.9V65.51h-5.7Z"/><path class="cls-1" d="M400.61,33.94h5.7V65.51h-5.7Z"/><path class="cls-1" d="M416.33,49.7a16.57,16.57,0,0,1,33.13,0,16.57,16.57,0,0,1-33.13,0Zm27.25,0a10.72,10.72,0,1,0-10.66,11.12C438.71,60.82,443.58,55.76,443.58,49.7Z"/><path class="cls-1" d="M459.75,33.94h5.74l16.68,22.19V33.94h5.7V65.51h-5.7l-16.68-22.2v22.2h-5.74Z"/><path class="cls-1" d="M515.76,49.7l11.72,15.81h-6.8l-8.32-11.22L504,65.51h-6.76L509,49.74l-11.72-15.8h6.85l8.32,11.21,8.36-11.21h6.71Z"/><path class="cls-2" d="M53.46,0,0,30.9V93l49,28.29,3.91,11.64h1.14l3.84-11.65,49-28.28V30.9Zm22,103.71-22,12.7-22-12.72V91.44l22,12.72,22-12.72Zm-22-7L31.42,84V71.77l22,12.73,22-12.7,0,12.22Zm22-32.36-22,12.7-22-12.72V52.11l22,12.72,22-12.7Zm-22-7L34.93,46.72,53.46,36,72,46.72ZM46.57,32.58,28.22,43.17,9.86,32.57,28.21,22Zm32.1,10.58L60.34,32.58,78.68,22,97,32.57ZM72.15,18.27,53.46,29.07,34.77,18.27,53.46,7.48ZM6.37,37.92,25,48.67V60.74L6.37,50Zm0,19.42L25,68.09V80.38L6.37,69.63ZM6.37,77,25,87.74v12.31L6.37,89.3ZM100.5,89.3,81.92,100V87.71L100.5,77Zm0-19.67L81.92,80.35V68.07L100.5,57.34ZM81.92,60.71V48.65L100.5,37.92V50Z"/><path class="cls-3" d="M134.57,74.64h3.94c3.69,0,6.32,2.28,6.32,5.49s-2.63,5.51-6.32,5.51h-3.94Zm4.24,8.86a3.36,3.36,0,1,0,0-6.71h-1.89V83.5Z"/><path class="cls-3" d="M149.69,76.77V79h5.52v2.12h-5.52v2.42h6.1v2.13h-8.47v-11h8.47v2.13Z"/><path class="cls-3" d="M157.82,80.13a5.84,5.84,0,0,1,5.84-5.68,5.91,5.91,0,0,1,4.27,1.84l-1.71,1.54a3.41,3.41,0,0,0-2.56-1.23,3.55,3.55,0,0,0,0,7.09,3.42,3.42,0,0,0,2.56-1.24L167.93,84a6,6,0,0,1-4.27,1.84A5.86,5.86,0,0,1,157.82,80.13Z"/><path class="cls-3" d="M172.43,76.77V79H178v2.12h-5.52v2.42h6.09v2.13h-8.46v-11h8.46v2.13Z"/><path class="cls-3" d="M181.08,74.64h2.35l5.3,7.11V74.64h2.37v11h-2.37l-5.3-7.11v7.11h-2.35Z"/><path class="cls-3" d="M196.89,76.77h-3.43V74.64h9.23v2.13h-3.43v8.87h-2.37Z"/><path class="cls-3" d="M211.55,85.64,209,82.07h-1.74v3.57h-2.35v-11h4.94c2.39,0,4.15,1.54,4.15,3.72a3.58,3.58,0,0,1-2.5,3.44l2.71,3.84Zm-4.26-5.73h2.34c1.17,0,2-.61,2-1.55s-.8-1.56-2-1.56h-2.34Z"/><path class="cls-3" d="M223.82,83.91h-4.9l-.7,1.73h-2.64l4.48-11h2.64l4.48,11h-2.66Zm-.82-2-1.63-4-1.63,4Z"/><path class="cls-3" d="M236.91,83.51v2.13h-7.85v-11h2.37v8.87Z"/><path class="cls-3" d="M239.13,74.64h2.37v11h-2.37Z"/><path class="cls-3" d="M244,83.85l5.78-7.08h-5.65V74.64h8.9v1.8l-5.78,7.07h5.85v2.13H244Z"/><path class="cls-3" d="M258,76.77V79h5.52v2.12H258v2.42h6.1v2.13h-8.47v-11h8.47v2.13Z"/><path class="cls-3" d="M266.63,74.64h3.94c3.7,0,6.32,2.28,6.32,5.49s-2.62,5.51-6.32,5.51h-3.94Zm4.24,8.86a3.36,3.36,0,1,0,0-6.71H269V83.5Z"/><path class="cls-3" d="M283.8,84l1.36-1.62a5.4,5.4,0,0,0,3.62,1.44c1.18,0,1.79-.54,1.79-1.23s-.64-1-2.32-1.41c-2.32-.53-4-1.18-4-3.31s1.66-3.43,4.07-3.43a6.34,6.34,0,0,1,4.3,1.52l-1.23,1.7a5.08,5.08,0,0,0-3.14-1.22c-1,0-1.62.53-1.62,1.19s.66,1,2.36,1.44c2.37.53,3.93,1.23,3.93,3.26s-1.58,3.49-4.27,3.49A7.08,7.08,0,0,1,283.8,84Z"/><path class="cls-3" d="M298.17,76.77h-3.43V74.64H304v2.13h-3.42v8.87h-2.37Z"/><path class="cls-3" d="M305.24,80.13a5.84,5.84,0,1,1,5.84,5.7A5.84,5.84,0,0,1,305.24,80.13Zm9.27,0a3.42,3.42,0,1,0-3.43,3.56A3.54,3.54,0,0,0,314.51,80.13Z"/><path class="cls-3" d="M326,85.64l-2.52-3.57h-1.74v3.57h-2.35v-11h4.94c2.39,0,4.15,1.54,4.15,3.72a3.59,3.59,0,0,1-2.5,3.44l2.71,3.84Zm-4.26-5.73H324c1.17,0,2-.61,2-1.55s-.8-1.56-2-1.56h-2.33Z"/><path class="cls-3" d="M338.22,83.91h-4.9l-.7,1.73H330l4.48-11h2.64l4.48,11h-2.66Zm-.82-2-1.63-4-1.63,4Z"/><path class="cls-3" d="M348.31,79.46h4.87V84a6.33,6.33,0,0,1-4.45,1.84,5.69,5.69,0,1,1,0-11.38,6.33,6.33,0,0,1,4.45,1.84l-1.71,1.54a3.79,3.79,0,0,0-2.74-1.23,3.55,3.55,0,0,0,0,7.09,3.71,3.71,0,0,0,2.14-.71V81.3h-2.56Z"/><path class="cls-3" d="M358.2,76.77V79h5.52v2.12H358.2v2.42h6.1v2.13h-8.47v-11h8.47v2.13Z"/><path class="cls-3" d="M371.93,74.64h2.37v11h-2.37Z"/><path class="cls-3" d="M377.25,74.64h2.36l5.3,7.11V74.64h2.36v11h-2.36l-5.3-7.11v7.11h-2.36Z"/><path class="cls-3" d="M392.58,76.77v2.39h5.53v2.13h-5.53v4.35h-2.36v-11h8.46v2.13Z"/><path class="cls-3" d="M407.64,85.64l-2.51-3.57h-1.75v3.57H401v-11h5c2.38,0,4.14,1.54,4.14,3.72a3.58,3.58,0,0,1-2.5,3.44l2.71,3.84Zm-4.26-5.73h2.34c1.17,0,2-.61,2-1.55s-.8-1.56-2-1.56h-2.34Z"/><path class="cls-3" d="M419.91,83.91H415l-.71,1.73h-2.64l4.48-11h2.64l4.48,11h-2.65Zm-.81-2-1.64-4-1.63,4Z"/><path class="cls-3" d="M424.52,84l1.36-1.62a5.4,5.4,0,0,0,3.62,1.44c1.18,0,1.79-.54,1.79-1.23s-.64-1-2.32-1.41c-2.32-.53-4-1.18-4-3.31s1.66-3.43,4.06-3.43A6.35,6.35,0,0,1,433.37,76l-1.23,1.7A5.08,5.08,0,0,0,429,76.45c-1,0-1.62.53-1.62,1.19s.66,1,2.36,1.44c2.36.53,3.93,1.23,3.93,3.26s-1.58,3.49-4.27,3.49A7.08,7.08,0,0,1,424.52,84Z"/><path class="cls-3" d="M438.89,76.77h-3.43V74.64h9.22v2.13h-3.42v8.87h-2.37Z"/><path class="cls-3" d="M453.54,85.64,451,82.07h-1.74v3.57h-2.36v-11h4.95c2.38,0,4.14,1.54,4.14,3.72a3.58,3.58,0,0,1-2.49,3.44l2.7,3.84Zm-4.25-5.73h2.33c1.17,0,2-.61,2-1.55s-.8-1.56-2-1.56h-2.33Z"/><path class="cls-3" d="M458.44,80.89V74.64h2.35v6.15a2.63,2.63,0,1,0,5.23,0V74.64h2.37v6.25a5,5,0,0,1-9.95,0Z"/><path class="cls-3" d="M470.77,80.13a5.84,5.84,0,0,1,5.85-5.68,5.91,5.91,0,0,1,4.27,1.84l-1.71,1.54a3.42,3.42,0,0,0-2.56-1.23,3.55,3.55,0,0,0,0,7.09,3.43,3.43,0,0,0,2.56-1.24L480.89,84a6,6,0,0,1-4.27,1.84A5.86,5.86,0,0,1,470.77,80.13Z"/><path class="cls-3" d="M485.86,76.77h-3.42V74.64h9.22v2.13h-3.43v8.87h-2.37Z"/><path class="cls-3" d="M493.89,80.89V74.64h2.36v6.15a2.63,2.63,0,1,0,5.23,0V74.64h2.37v6.25a5,5,0,0,1-10,0Z"/><path class="cls-3" d="M513.27,85.64l-2.51-3.57H509v3.57h-2.35v-11h4.95c2.38,0,4.14,1.54,4.14,3.72a3.58,3.58,0,0,1-2.49,3.44l2.7,3.84ZM509,79.91h2.34c1.17,0,2-.61,2-1.55s-.8-1.56-2-1.56H509Z"/><path class="cls-3" d="M520.55,76.77V79h5.52v2.12h-5.52v2.42h6.1v2.13h-8.47v-11h8.47v2.13Z"/></g></g></svg>